<?xml version="1.0" encoding="utf-8"?>
<!-- Generator: Adobe Illustrator 21.0.2, SVG Export Plug-In . SVG Version: 6.00 Build 0)  -->
<svg version="1.1" id="Layer_1" xmlns="http://www.w3.org/2000/svg" xmlns:xlink="http://www.w3.org/1999/xlink" x="0px" y="0px"
	 viewBox="0 0 358.9 88.9" style="enable-background:new 0 0 358.9 88.9;" xml:space="preserve">
<style type="text/css">
<!--	.st0{fill:#8E9192;}-->
	.st0{fill:#FFFFFF;}
	.st1{fill:#14adb8;}
</style>
<g>
	<g>
		<path class="st0" d="M19.2,38.4h-8.4c-1.1,0-1.6,0.6-1.6,1.7v3.3H0v-8.7c0-3.7,1.4-5.1,5.1-5.1h38.5c3.7,0,5,1.4,5,5.1v8.7h-8.7
			v-3.3c0-1.1-0.8-1.7-1.9-1.7h-8.6v46.7H19.2V38.4z"/>
		<path class="st0" d="M52.7,55.4c0-1.2-0.6-1.9-1.7-1.9h-2.9v-8.2h8.8c3.5,0,5.4,1.5,5.4,4.9v2.3c0,1.5-0.3,2.4-0.3,2.4h0.2
			c1.8-5.5,6.5-10.1,12.6-10.1c0.9,0,1.8,0.2,1.8,0.2v9.7c0,0-1-0.2-2.4-0.2c-4.2,0-9.1,2.4-10.9,8.3c-0.5,1.9-0.9,4.1-0.9,6.4v15.9
			h-9.6V55.4z"/>
		<path class="st0" d="M99.4,44.4c11.3,0,17.6,8.3,17.6,18.8c0,1.2-0.2,3.6-0.2,3.6H89.4c0.8,6.9,5.9,10.7,11.9,10.7
			c6.4,0,11.1-4.4,11.1-4.4l4.1,6.8c0,0-6.1,6-15.9,6c-13.1,0-21.3-9.5-21.3-20.7C79.3,52.9,87.5,44.4,99.4,44.4z M106.8,59.9
			c-0.2-4.6-3.4-8-7.5-8c-5.1,0-8.6,3-9.7,8H106.8z"/>
		<path class="st0" d="M126.4,55.4c0-1.2-0.5-1.9-1.6-1.9h-3v-8.2h8.9c3.5,0,5.3,1.7,5.3,4.5v1.2c0,0.9-0.1,1.7-0.1,1.7h0.2
			c1.9-3.7,6.6-8.2,12.8-8.2c6,0,9.9,2.7,11.6,8.2h0.2c2.1-4.1,7.3-8.2,13.6-8.2c8.2,0,13.1,4.6,13.1,15.1v15.5
			c0,1.1,0.4,1.5,1.5,1.5h3.1v8.7h-9.4c-3.7,0-5.3-1.7-5.3-5.5V61.3c0-4.5-0.9-7.9-5.4-7.9c-4.9,0-8.4,4.1-9.5,9.1
			c-0.5,1.6-0.6,3.2-0.6,5.1v17.6h-10.1V61.3c0-4.3-0.5-7.9-5.2-7.9c-5,0-8.2,4.1-9.4,9.2c-0.4,1.6-0.5,3.2-0.5,5v17.6h-10.1V55.4z"
			/>
		<path class="st0" d="M199.7,55.4c0-1.2-0.7-1.9-1.8-1.9h-3.2v-8.2h9.5c3.7,0,5.1,1.7,5.1,5.3v18.3c0,4.8,1.3,8.1,6.2,8.1
			c7.1,0,11.2-6.3,11.2-13.4V45.3h9.6v29.7c0,1.1,0.8,1.5,1.9,1.5h3.1v8.7h-9.1c-3.4,0-5.1-1.8-5.1-4.6v-1.1c0-0.9-0.1-1.6-0.1-1.6
			H227c-1.9,4.1-6.8,8.2-13.6,8.2c-8.5,0-13.6-4.3-13.6-15.1V55.4z M207.5,29.7h6.9v9.2h-6.9V29.7z M221.2,29.7h6.9v9.2h-6.9V29.7z"
			/>
		<path class="st0" d="M249.2,55.4c0-1.2-0.4-1.9-1.5-1.9h-3v-8.2h9c3.5,0,5.2,1.7,5.2,4.5v1.2c0,0.9-0.1,1.7-0.1,1.7h0.2
			c1.7-3.2,6-8.2,14-8.2c8.8,0,13.9,4.6,13.9,15.1v15.5c0,1.1,0.5,1.5,1.6,1.5h3v8.7h-9.2c-3.7,0-5.4-1.7-5.4-5.5V61.5
			c0-4.8-1.2-8.1-6.2-8.1c-5.3,0-9.2,3.3-10.6,8.1c-0.5,1.6-0.7,3.4-0.7,5.3v18.3h-10.1V55.4z"/>
	</g>
	<g>
		<g>
			<g>
				<path class="st1" d="M315.2,38.8c-0.7-5.8-2.8-11.4-5.9-16.2c-3.1-4.8-7.4-8.8-12.3-11.6c-4.9-2.9-10.3-4.7-15.9-5.9
					c-5.6-1.2-11.4-1.5-17.1-1.5l1.8-1.8c0,1.2,0.2,2.7,0.4,4c0.2,1.4,0.6,2.7,1,4.1c0.8,2.7,2,5.2,3.4,7.7c1.4,2.4,3.1,4.7,5,6.7
					c2,2,4.2,3.8,6.5,5.4c4.7,3.1,10.2,5.2,15.8,6.7C303.5,37.7,309.3,38.4,315.2,38.8z M315.2,38.8c-5.8,0.4-11.8,0.2-17.7-0.8
					c-5.8-1.1-11.7-2.9-16.9-6c-5.2-3.1-9.8-7.4-13-12.7c-1.6-2.6-2.9-5.4-3.8-8.4c-0.5-1.5-0.8-3-1.1-4.5c-0.3-1.5-0.5-3-0.5-4.7
					L262.2,0l1.8,0c6,0,12,0.4,17.8,1.8c5.8,1.4,11.6,3.4,16.7,6.8c2.5,1.7,4.9,3.6,7,5.8c2.1,2.2,3.9,4.7,5.3,7.3
					C313.7,27,315.3,32.9,315.2,38.8z"/>
			</g>
			<g>
				<path class="st1" d="M323,88.9c0.9-4.2,1.2-8.4,1.2-12.7c0-4.2-0.4-8.5-1.1-12.6c-0.7-4.1-1.9-8.2-3.3-12.1
					c-1.5-3.9-3.3-7.7-5.4-11.3c-4.3-7.3-9.5-13.9-16-19.2c-3.2-2.7-6.8-5-10.5-7c-3.7-2.1-7.6-3.8-11.6-5.4
					c8.3,2,16.5,5.4,23.5,10.6c3.5,2.6,6.7,5.6,9.5,9c2.8,3.3,5.3,6.9,7.5,10.7c4.4,7.5,7.3,15.9,8.4,24.5c0.6,4.3,0.7,8.7,0.4,13
					C325.1,80.6,324.4,84.9,323,88.9z"/>
			</g>
			<g>
				<path class="st1" d="M291.4,23.6c1.3-0.4,2.6-0.6,3.9-0.7c1.3-0.1,2.7-0.2,4-0.1c1.4,0.1,2.7,0.4,4.1,0.8
					c1.3,0.5,2.6,1.2,3.8,2.1l-1.8,1.9c-0.8-0.8-1.7-1.6-2.8-2.2c-1.1-0.6-2.3-1-3.5-1.3C296.7,23.5,294,23.3,291.4,23.6z"/>
			</g>
		</g>
		<g>
			<g>
				<path class="st1" d="M327.5,59.2c-0.1-3.5,0.9-7,2.6-10.1c1.7-3.1,4.3-5.8,7.3-7.8c3-2,6.4-3.2,9.9-4c3.5-0.8,7-1,10.6-1.1
					l1.1,0l0,1.1c-0.1,1.9-0.5,3.7-1,5.4c-0.6,1.7-1.3,3.4-2.3,5c-1.9,3.1-4.6,5.7-7.7,7.5c-3.1,1.9-6.5,2.9-10,3.6
					C334.5,59.3,330.9,59.4,327.5,59.2z M327.5,59.2c3.5-0.2,6.9-0.6,10.3-1.5c3.3-0.8,6.5-2.1,9.3-3.9c2.8-1.9,5.2-4.3,6.9-7.1
					c0.8-1.4,1.5-3,2-4.5c0.5-1.6,0.8-3.3,0.9-4.8l1.1,1.1c-3.4,0-6.8,0.2-10.2,0.9c-3.3,0.7-6.6,1.8-9.4,3.5
					c-2.9,1.7-5.4,4-7.3,6.9C329.1,52.4,327.8,55.7,327.5,59.2z"/>
			</g>
			<g>
				<path class="st1" d="M322.8,88.9c-1.6-4.8-1.9-10.1-1.3-15.2c0.6-5.1,2.4-10.1,5-14.6c2.5-4.5,5.9-8.6,10.1-11.7
					c4.1-3.1,9-5.1,13.9-6.3c-4.7,1.8-9.2,4.2-13.1,7.4c-3.9,3.1-7,7.1-9.5,11.4c-2.5,4.3-4.3,9-5.2,13.9c-0.4,2.5-0.7,5-0.7,7.5
					C322.1,83.9,322.3,86.4,322.8,88.9z"/>
			</g>
			<g>
				<path class="st1" d="M341.6,50.2c-1.5-0.2-3.1,0-4.6,0.3c-0.7,0.2-1.4,0.5-2.1,0.8c-0.6,0.4-1.2,0.8-1.6,1.3l-1.1-1.1
					c0.7-0.5,1.4-1,2.2-1.3c0.8-0.3,1.6-0.4,2.4-0.5C338.5,49.6,340.1,49.8,341.6,50.2z"/>
			</g>
		</g>
	</g>
</g>
</svg>
